<?xml version="1.0" encoding="UTF-8"?>
<svg version="1.1" xmlns="http://www.w3.org/2000/svg" width="376" height="370">
<path d="M0 0 C124.08 0 248.16 0 376 0 C376 122.1 376 244.2 376 370 C251.92 370 127.84 370 0 370 C0 247.9 0 125.8 0 0 Z " fill="#FEFEFE" transform="translate(0,0)"/>
<path d="M0 0 C0.97585304 -0.00525696 0.97585304 -0.00525696 1.97142029 -0.01062012 C4.12623705 -0.01943723 6.28072666 -0.01358856 8.43554688 -0.00683594 C9.93005435 -0.0081826 11.42456141 -0.01012314 12.91906738 -0.01263428 C16.0530209 -0.0155855 19.18686049 -0.01128801 22.32080078 -0.00195312 C26.34279701 0.0094415 30.36452633 0.00288201 34.38651276 -0.00909805 C37.47310404 -0.01631674 40.5596318 -0.0140287 43.64622498 -0.00884247 C45.12943045 -0.00750599 46.61264166 -0.00915363 48.09584045 -0.01380157 C50.16691419 -0.01886705 52.23755254 -0.01115678 54.30859375 0 C55.48836792 0.00159119 56.66814209 0.00318237 57.88366699 0.00482178 C60.65429688 0.25878906 60.65429688 0.25878906 62.65429688 2.25878906 C62.90826416 5.02941895 62.90826416 5.02941895 62.91308594 8.60449219 C62.91659058 9.25506088 62.92009521 9.90562958 62.92370605 10.57591248 C62.93252317 12.73072924 62.9266745 14.88521884 62.91992188 17.04003906 C62.92126854 18.53454654 62.92320908 20.02905359 62.92572021 21.52355957 C62.92867144 24.65751308 62.92437395 27.79135268 62.91503906 30.92529297 C62.90364444 34.94728919 62.91020393 38.96901852 62.92218399 42.99100494 C62.92940268 46.07759623 62.92711464 49.16412399 62.92192841 52.25071716 C62.92059193 53.73392264 62.92223957 55.21713384 62.92688751 56.70033264 C62.93195299 58.77140638 62.92424272 60.84204472 62.91308594 62.91308594 C62.91149475 64.09286011 62.90990356 65.27263428 62.90826416 66.48815918 C62.65429688 69.25878906 62.65429688 69.25878906 60.65429688 71.25878906 C57.88366699 71.51275635 57.88366699 71.51275635 54.30859375 71.51757812 C53.33274071 71.52283508 53.33274071 71.52283508 52.33717346 71.52819824 C50.1823567 71.53701536 48.02786709 71.53116669 45.87304688 71.52441406 C44.3785394 71.52576072 42.88403234 71.52770126 41.38952637 71.5302124 C38.25557285 71.53316363 35.12173326 71.52886614 31.98779297 71.51953125 C27.96579674 71.50813663 23.94406742 71.51469612 19.92208099 71.52667618 C16.83548971 71.53389486 13.74896195 71.53160683 10.66236877 71.52642059 C9.1791633 71.52508412 7.69595209 71.52673175 6.2127533 71.5313797 C4.14167956 71.53644518 2.07104121 71.5287349 0 71.51757812 C-1.17977417 71.51598694 -2.35954834 71.51439575 -3.57507324 71.51275635 C-6.34570312 71.25878906 -6.34570312 71.25878906 -8.34570312 69.25878906 C-8.59967041 66.48815918 -8.59967041 66.48815918 -8.60449219 62.91308594 C-8.60799683 62.26251724 -8.61150146 61.61194855 -8.6151123 60.94166565 C-8.62392942 58.78684889 -8.61808075 56.63235928 -8.61132812 54.47753906 C-8.61267479 52.98303158 -8.61461533 51.48852453 -8.61712646 49.99401855 C-8.62007769 46.86006504 -8.6157802 43.72622544 -8.60644531 40.59228516 C-8.59505069 36.57028893 -8.60161018 32.54855961 -8.61359024 28.52657318 C-8.62080893 25.43998189 -8.61852089 22.35345414 -8.61333466 19.26686096 C-8.61199818 17.78365548 -8.61364582 16.30044428 -8.61829376 14.81724548 C-8.62335924 12.74617175 -8.61564897 10.6755334 -8.60449219 8.60449219 C-8.602901 7.42471802 -8.60130981 6.24494385 -8.59967041 5.02941895 C-8.08610314 -0.57329019 -4.79526587 0.00646748 0 0 Z " fill="#E16348" transform="translate(111.345703125,198.7412109375)"/>
<path d="M0 0 C0.97585304 -0.00525696 0.97585304 -0.00525696 1.97142029 -0.01062012 C4.12623705 -0.01943723 6.28072666 -0.01358856 8.43554688 -0.00683594 C9.93005435 -0.0081826 11.42456141 -0.01012314 12.91906738 -0.01263428 C16.0530209 -0.0155855 19.18686049 -0.01128801 22.32080078 -0.00195312 C26.34279701 0.0094415 30.36452633 0.00288201 34.38651276 -0.00909805 C37.47310404 -0.01631674 40.5596318 -0.0140287 43.64622498 -0.00884247 C45.12943045 -0.00750599 46.61264166 -0.00915363 48.09584045 -0.01380157 C50.16691419 -0.01886705 52.23755254 -0.01115678 54.30859375 0 C55.48836792 0.00159119 56.66814209 0.00318237 57.88366699 0.00482178 C60.65429688 0.25878906 60.65429688 0.25878906 62.65429688 2.25878906 C62.90826416 5.02941895 62.90826416 5.02941895 62.91308594 8.60449219 C62.91659058 9.25506088 62.92009521 9.90562958 62.92370605 10.57591248 C62.93252317 12.73072924 62.9266745 14.88521884 62.91992188 17.04003906 C62.92126854 18.53454654 62.92320908 20.02905359 62.92572021 21.52355957 C62.92867144 24.65751308 62.92437395 27.79135268 62.91503906 30.92529297 C62.90364444 34.94728919 62.91020393 38.96901852 62.92218399 42.99100494 C62.92940268 46.07759623 62.92711464 49.16412399 62.92192841 52.25071716 C62.92059193 53.73392264 62.92223957 55.21713384 62.92688751 56.70033264 C62.93195299 58.77140638 62.92424272 60.84204472 62.91308594 62.91308594 C62.91149475 64.09286011 62.90990356 65.27263428 62.90826416 66.48815918 C62.65429688 69.25878906 62.65429688 69.25878906 60.65429688 71.25878906 C57.88366699 71.51275635 57.88366699 71.51275635 54.30859375 71.51757812 C53.33274071 71.52283508 53.33274071 71.52283508 52.33717346 71.52819824 C50.1823567 71.53701536 48.02786709 71.53116669 45.87304688 71.52441406 C44.3785394 71.52576072 42.88403234 71.52770126 41.38952637 71.5302124 C38.25557285 71.53316363 35.12173326 71.52886614 31.98779297 71.51953125 C27.96579674 71.50813663 23.94406742 71.51469612 19.92208099 71.52667618 C16.83548971 71.53389486 13.74896195 71.53160683 10.66236877 71.52642059 C9.1791633 71.52508412 7.69595209 71.52673175 6.2127533 71.5313797 C4.14167956 71.53644518 2.07104121 71.5287349 0 71.51757812 C-1.17977417 71.51598694 -2.35954834 71.51439575 -3.57507324 71.51275635 C-6.34570312 71.25878906 -6.34570312 71.25878906 -8.34570312 69.25878906 C-8.59967041 66.48815918 -8.59967041 66.48815918 -8.60449219 62.91308594 C-8.60799683 62.26251724 -8.61150146 61.61194855 -8.6151123 60.94166565 C-8.62392942 58.78684889 -8.61808075 56.63235928 -8.61132812 54.47753906 C-8.61267479 52.98303158 -8.61461533 51.48852453 -8.61712646 49.99401855 C-8.62007769 46.86006504 -8.6157802 43.72622544 -8.60644531 40.59228516 C-8.59505069 36.57028893 -8.60161018 32.54855961 -8.61359024 28.52657318 C-8.62080893 25.43998189 -8.61852089 22.35345414 -8.61333466 19.26686096 C-8.61199818 17.78365548 -8.61364582 16.30044428 -8.61829376 14.81724548 C-8.62335924 12.74617175 -8.61564897 10.6755334 -8.60449219 8.60449219 C-8.602901 7.42471802 -8.60130981 6.24494385 -8.59967041 5.02941895 C-8.08610314 -0.57329019 -4.79526587 0.00646748 0 0 Z " fill="#E16348" transform="translate(11.345703125,198.7412109375)"/>
<path d="M0 0 C0.97585304 -0.00525696 0.97585304 -0.00525696 1.97142029 -0.01062012 C4.12623705 -0.01943723 6.28072666 -0.01358856 8.43554688 -0.00683594 C9.93005435 -0.0081826 11.42456141 -0.01012314 12.91906738 -0.01263428 C16.0530209 -0.0155855 19.18686049 -0.01128801 22.32080078 -0.00195312 C26.34279701 0.0094415 30.36452633 0.00288201 34.38651276 -0.00909805 C37.47310404 -0.01631674 40.5596318 -0.0140287 43.64622498 -0.00884247 C45.12943045 -0.00750599 46.61264166 -0.00915363 48.09584045 -0.01380157 C50.16691419 -0.01886705 52.23755254 -0.01115678 54.30859375 0 C55.48836792 0.00159119 56.66814209 0.00318237 57.88366699 0.00482178 C60.65429688 0.25878906 60.65429688 0.25878906 62.65429688 2.25878906 C62.90826416 5.02941895 62.90826416 5.02941895 62.91308594 8.60449219 C62.91659058 9.25506088 62.92009521 9.90562958 62.92370605 10.57591248 C62.93252317 12.73072924 62.9266745 14.88521884 62.91992188 17.04003906 C62.92126854 18.53454654 62.92320908 20.02905359 62.92572021 21.52355957 C62.92867144 24.65751308 62.92437395 27.79135268 62.91503906 30.92529297 C62.90364444 34.94728919 62.91020393 38.96901852 62.92218399 42.99100494 C62.92940268 46.07759623 62.92711464 49.16412399 62.92192841 52.25071716 C62.92059193 53.73392264 62.92223957 55.21713384 62.92688751 56.70033264 C62.93195299 58.77140638 62.92424272 60.84204472 62.91308594 62.91308594 C62.91149475 64.09286011 62.90990356 65.27263428 62.90826416 66.48815918 C62.65429688 69.25878906 62.65429688 69.25878906 60.65429688 71.25878906 C57.88366699 71.51275635 57.88366699 71.51275635 54.30859375 71.51757812 C53.33274071 71.52283508 53.33274071 71.52283508 52.33717346 71.52819824 C50.1823567 71.53701536 48.02786709 71.53116669 45.87304688 71.52441406 C44.3785394 71.52576072 42.88403234 71.52770126 41.38952637 71.5302124 C38.25557285 71.53316363 35.12173326 71.52886614 31.98779297 71.51953125 C27.96579674 71.50813663 23.94406742 71.51469612 19.92208099 71.52667618 C16.83548971 71.53389486 13.74896195 71.53160683 10.66236877 71.52642059 C9.1791633 71.52508412 7.69595209 71.52673175 6.2127533 71.5313797 C4.14167956 71.53644518 2.07104121 71.5287349 0 71.51757812 C-1.17977417 71.51598694 -2.35954834 71.51439575 -3.57507324 71.51275635 C-6.34570312 71.25878906 -6.34570312 71.25878906 -8.34570312 69.25878906 C-8.59967041 66.48815918 -8.59967041 66.48815918 -8.60449219 62.91308594 C-8.60799683 62.26251724 -8.61150146 61.61194855 -8.6151123 60.94166565 C-8.62392942 58.78684889 -8.61808075 56.63235928 -8.61132812 54.47753906 C-8.61267479 52.98303158 -8.61461533 51.48852453 -8.61712646 49.99401855 C-8.62007769 46.86006504 -8.6157802 43.72622544 -8.60644531 40.59228516 C-8.59505069 36.57028893 -8.60161018 32.54855961 -8.61359024 28.52657318 C-8.62080893 25.43998189 -8.61852089 22.35345414 -8.61333466 19.26686096 C-8.61199818 17.78365548 -8.61364582 16.30044428 -8.61829376 14.81724548 C-8.62335924 12.74617175 -8.61564897 10.6755334 -8.60449219 8.60449219 C-8.602901 7.42471802 -8.60130981 6.24494385 -8.59967041 5.02941895 C-8.08610314 -0.57329019 -4.79526587 0.00646748 0 0 Z " fill="#E16348" transform="translate(11.345703125,98.7412109375)"/>
<path d="M0 0 C0.97585304 -0.00525696 0.97585304 -0.00525696 1.97142029 -0.01062012 C4.12623705 -0.01943723 6.28072666 -0.01358856 8.43554688 -0.00683594 C9.93005435 -0.0081826 11.42456141 -0.01012314 12.91906738 -0.01263428 C16.0530209 -0.0155855 19.18686049 -0.01128801 22.32080078 -0.00195312 C26.34279701 0.0094415 30.36452633 0.00288201 34.38651276 -0.00909805 C37.47310404 -0.01631674 40.5596318 -0.0140287 43.64622498 -0.00884247 C45.12943045 -0.00750599 46.61264166 -0.00915363 48.09584045 -0.01380157 C50.16691419 -0.01886705 52.23755254 -0.01115678 54.30859375 0 C55.48836792 0.00159119 56.66814209 0.00318237 57.88366699 0.00482178 C60.65429688 0.25878906 60.65429688 0.25878906 62.65429688 2.25878906 C62.91499329 5.02941895 62.91499329 5.02941895 62.92895508 8.60449219 C62.93406601 9.25506088 62.93917694 9.90562958 62.94444275 10.57591248 C62.95836608 12.73071438 62.95738018 14.88519747 62.95507812 17.04003906 C62.95896322 18.53454712 62.9632975 20.02905407 62.96806335 21.52355957 C62.97553119 24.6575071 62.97523001 27.79134199 62.9699707 30.92529297 C62.96417153 34.94737559 62.98111469 38.96899839 63.00431538 42.99100494 C63.01902441 46.07760324 63.01992838 49.16409003 63.01680565 52.25071716 C63.01732017 53.7339316 63.02258235 55.21715207 63.03261757 56.70033264 C63.04491227 58.77155737 63.03823392 60.84187644 63.02661133 62.91308594 C63.02724075 64.09286011 63.02787018 65.27263428 63.02851868 66.48815918 C62.90502548 67.40246704 62.78153229 68.3167749 62.65429688 69.25878906 C59.08323087 71.63949973 57.52598303 71.51176221 53.28686523 71.51757812 C51.31483376 71.52703461 51.31483376 71.52703461 49.30296326 71.53668213 C47.86668768 71.53310272 46.43041333 71.52900086 44.99414062 71.52441406 C43.52348262 71.52576114 42.05282506 71.52770203 40.58216858 71.5302124 C37.50126909 71.53316075 34.42048561 71.52887477 31.33959961 71.51953125 C27.38601182 71.50812677 23.43269527 71.51470417 19.47911739 71.52667618 C16.44314012 71.53389409 13.40722744 71.53160736 10.37124825 71.52642059 C8.91316254 71.52508442 7.45507101 71.52673069 5.99699211 71.5313797 C3.96210717 71.53644462 1.92720172 71.52735938 -0.10766602 71.51757812 C-1.26665909 71.51598694 -2.42565216 71.51439575 -3.61976624 71.51275635 C-6.34570312 71.25878906 -6.34570312 71.25878906 -8.34570312 69.25878906 C-8.59967041 66.48815918 -8.59967041 66.48815918 -8.60449219 62.91308594 C-8.60799683 62.26251724 -8.61150146 61.61194855 -8.6151123 60.94166565 C-8.62392942 58.78684889 -8.61808075 56.63235928 -8.61132812 54.47753906 C-8.61267479 52.98303158 -8.61461533 51.48852453 -8.61712646 49.99401855 C-8.62007769 46.86006504 -8.6157802 43.72622544 -8.60644531 40.59228516 C-8.59505069 36.57028893 -8.60161018 32.54855961 -8.61359024 28.52657318 C-8.62080893 25.43998189 -8.61852089 22.35345414 -8.61333466 19.26686096 C-8.61199818 17.78365548 -8.61364582 16.30044428 -8.61829376 14.81724548 C-8.62335924 12.74617175 -8.61564897 10.6755334 -8.60449219 8.60449219 C-8.602901 7.42471802 -8.60130981 6.24494385 -8.59967041 5.02941895 C-8.08610314 -0.57329019 -4.79526587 0.00646748 0 0 Z " fill="#E16348" transform="translate(211.345703125,298.7412109375)"/>
<path d="M0 0 C0.97585304 -0.00525696 0.97585304 -0.00525696 1.97142029 -0.01062012 C4.12623705 -0.01943723 6.28072666 -0.01358856 8.43554688 -0.00683594 C9.93005435 -0.0081826 11.42456141 -0.01012314 12.91906738 -0.01263428 C16.0530209 -0.0155855 19.18686049 -0.01128801 22.32080078 -0.00195312 C26.34279701 0.0094415 30.36452633 0.00288201 34.38651276 -0.00909805 C37.47310404 -0.01631674 40.5596318 -0.0140287 43.64622498 -0.00884247 C45.12943045 -0.00750599 46.61264166 -0.00915363 48.09584045 -0.01380157 C50.16691419 -0.01886705 52.23755254 -0.01115678 54.30859375 0 C55.48836792 0.00159119 56.66814209 0.00318237 57.88366699 0.00482178 C60.65429688 0.25878906 60.65429688 0.25878906 62.65429688 2.25878906 C62.91499329 5.02941895 62.91499329 5.02941895 62.92895508 8.60449219 C62.93406601 9.25506088 62.93917694 9.90562958 62.94444275 10.57591248 C62.95836608 12.73071438 62.95738018 14.88519747 62.95507812 17.04003906 C62.95896322 18.53454712 62.9632975 20.02905407 62.96806335 21.52355957 C62.97553119 24.6575071 62.97523001 27.79134199 62.9699707 30.92529297 C62.96417153 34.94737559 62.98111469 38.96899839 63.00431538 42.99100494 C63.01902441 46.07760324 63.01992838 49.16409003 63.01680565 52.25071716 C63.01732017 53.7339316 63.02258235 55.21715207 63.03261757 56.70033264 C63.04491227 58.77155737 63.03823392 60.84187644 63.02661133 62.91308594 C63.02724075 64.09286011 63.02787018 65.27263428 63.02851868 66.48815918 C62.90502548 67.40246704 62.78153229 68.3167749 62.65429688 69.25878906 C59.08323087 71.63949973 57.52598303 71.51176221 53.28686523 71.51757812 C51.31483376 71.52703461 51.31483376 71.52703461 49.30296326 71.53668213 C47.86668768 71.53310272 46.43041333 71.52900086 44.99414062 71.52441406 C43.52348262 71.52576114 42.05282506 71.52770203 40.58216858 71.5302124 C37.50126909 71.53316075 34.42048561 71.52887477 31.33959961 71.51953125 C27.38601182 71.50812677 23.43269527 71.51470417 19.47911739 71.52667618 C16.44314012 71.53389409 13.40722744 71.53160736 10.37124825 71.52642059 C8.91316254 71.52508442 7.45507101 71.52673069 5.99699211 71.5313797 C3.96210717 71.53644462 1.92720172 71.52735938 -0.10766602 71.51757812 C-1.26665909 71.51598694 -2.42565216 71.51439575 -3.61976624 71.51275635 C-6.34570312 71.25878906 -6.34570312 71.25878906 -8.34570312 69.25878906 C-8.59967041 66.48815918 -8.59967041 66.48815918 -8.60449219 62.91308594 C-8.60799683 62.26251724 -8.61150146 61.61194855 -8.6151123 60.94166565 C-8.62392942 58.78684889 -8.61808075 56.63235928 -8.61132812 54.47753906 C-8.61267479 52.98303158 -8.61461533 51.48852453 -8.61712646 49.99401855 C-8.62007769 46.86006504 -8.6157802 43.72622544 -8.60644531 40.59228516 C-8.59505069 36.57028893 -8.60161018 32.54855961 -8.61359024 28.52657318 C-8.62080893 25.43998189 -8.61852089 22.35345414 -8.61333466 19.26686096 C-8.61199818 17.78365548 -8.61364582 16.30044428 -8.61829376 14.81724548 C-8.62335924 12.74617175 -8.61564897 10.6755334 -8.60449219 8.60449219 C-8.602901 7.42471802 -8.60130981 6.24494385 -8.59967041 5.02941895 C-8.08610314 -0.57329019 -4.79526587 0.00646748 0 0 Z " fill="#E16348" transform="translate(111.345703125,298.7412109375)"/>
<path d="M0 0 C0.97585304 -0.00525696 0.97585304 -0.00525696 1.97142029 -0.01062012 C4.12623705 -0.01943723 6.28072666 -0.01358856 8.43554688 -0.00683594 C9.93005435 -0.0081826 11.42456141 -0.01012314 12.91906738 -0.01263428 C16.0530209 -0.0155855 19.18686049 -0.01128801 22.32080078 -0.00195312 C26.34279701 0.0094415 30.36452633 0.00288201 34.38651276 -0.00909805 C37.47310404 -0.01631674 40.5596318 -0.0140287 43.64622498 -0.00884247 C45.12943045 -0.00750599 46.61264166 -0.00915363 48.09584045 -0.01380157 C50.16691419 -0.01886705 52.23755254 -0.01115678 54.30859375 0 C55.48836792 0.00159119 56.66814209 0.00318237 57.88366699 0.00482178 C60.65429688 0.25878906 60.65429688 0.25878906 62.65429688 2.25878906 C62.91499329 5.02941895 62.91499329 5.02941895 62.92895508 8.60449219 C62.93406601 9.25506088 62.93917694 9.90562958 62.94444275 10.57591248 C62.95836608 12.73071438 62.95738018 14.88519747 62.95507812 17.04003906 C62.95896322 18.53454712 62.9632975 20.02905407 62.96806335 21.52355957 C62.97553119 24.6575071 62.97523001 27.79134199 62.9699707 30.92529297 C62.96417153 34.94737559 62.98111469 38.96899839 63.00431538 42.99100494 C63.01902441 46.07760324 63.01992838 49.16409003 63.01680565 52.25071716 C63.01732017 53.7339316 63.02258235 55.21715207 63.03261757 56.70033264 C63.04491227 58.77155737 63.03823392 60.84187644 63.02661133 62.91308594 C63.02724075 64.09286011 63.02787018 65.27263428 63.02851868 66.48815918 C62.90502548 67.40246704 62.78153229 68.3167749 62.65429688 69.25878906 C59.08323087 71.63949973 57.52598303 71.51176221 53.28686523 71.51757812 C51.31483376 71.52703461 51.31483376 71.52703461 49.30296326 71.53668213 C47.86668768 71.53310272 46.43041333 71.52900086 44.99414062 71.52441406 C43.52348262 71.52576114 42.05282506 71.52770203 40.58216858 71.5302124 C37.50126909 71.53316075 34.42048561 71.52887477 31.33959961 71.51953125 C27.38601182 71.50812677 23.43269527 71.51470417 19.47911739 71.52667618 C16.44314012 71.53389409 13.40722744 71.53160736 10.37124825 71.52642059 C8.91316254 71.52508442 7.45507101 71.52673069 5.99699211 71.5313797 C3.96210717 71.53644462 1.92720172 71.52735938 -0.10766602 71.51757812 C-1.26665909 71.51598694 -2.42565216 71.51439575 -3.61976624 71.51275635 C-6.34570312 71.25878906 -6.34570312 71.25878906 -8.34570312 69.25878906 C-8.59967041 66.48815918 -8.59967041 66.48815918 -8.60449219 62.91308594 C-8.60799683 62.26251724 -8.61150146 61.61194855 -8.6151123 60.94166565 C-8.62392942 58.78684889 -8.61808075 56.63235928 -8.61132812 54.47753906 C-8.61267479 52.98303158 -8.61461533 51.48852453 -8.61712646 49.99401855 C-8.62007769 46.86006504 -8.6157802 43.72622544 -8.60644531 40.59228516 C-8.59505069 36.57028893 -8.60161018 32.54855961 -8.61359024 28.52657318 C-8.62080893 25.43998189 -8.61852089 22.35345414 -8.61333466 19.26686096 C-8.61199818 17.78365548 -8.61364582 16.30044428 -8.61829376 14.81724548 C-8.62335924 12.74617175 -8.61564897 10.6755334 -8.60449219 8.60449219 C-8.602901 7.42471802 -8.60130981 6.24494385 -8.59967041 5.02941895 C-8.08610314 -0.57329019 -4.79526587 0.00646748 0 0 Z " fill="#E16348" transform="translate(11.345703125,298.7412109375)"/>
<path d="M0 0 C0.97585304 -0.00525696 0.97585304 -0.00525696 1.97142029 -0.01062012 C4.12623705 -0.01943723 6.28072666 -0.01358856 8.43554688 -0.00683594 C9.93005435 -0.0081826 11.42456141 -0.01012314 12.91906738 -0.01263428 C16.0530209 -0.0155855 19.18686049 -0.01128801 22.32080078 -0.00195312 C26.34279701 0.0094415 30.36452633 0.00288201 34.38651276 -0.00909805 C37.47310404 -0.01631674 40.5596318 -0.0140287 43.64622498 -0.00884247 C45.12943045 -0.00750599 46.61264166 -0.00915363 48.09584045 -0.01380157 C50.16691419 -0.01886705 52.23755254 -0.01115678 54.30859375 0 C55.48836792 0.00159119 56.66814209 0.00318237 57.88366699 0.00482178 C60.65429688 0.25878906 60.65429688 0.25878906 62.65429688 2.25878906 C62.91499329 5.02941895 62.91499329 5.02941895 62.92895508 8.60449219 C62.93406601 9.25506088 62.93917694 9.90562958 62.94444275 10.57591248 C62.95836608 12.73071438 62.95738018 14.88519747 62.95507812 17.04003906 C62.95896322 18.53454712 62.9632975 20.02905407 62.96806335 21.52355957 C62.97553119 24.6575071 62.97523001 27.79134199 62.9699707 30.92529297 C62.96417153 34.94737559 62.98111469 38.96899839 63.00431538 42.99100494 C63.01902441 46.07760324 63.01992838 49.16409003 63.01680565 52.25071716 C63.01732017 53.7339316 63.02258235 55.21715207 63.03261757 56.70033264 C63.04491227 58.77155737 63.03823392 60.84187644 63.02661133 62.91308594 C63.02724075 64.09286011 63.02787018 65.27263428 63.02851868 66.48815918 C62.90502548 67.40246704 62.78153229 68.3167749 62.65429688 69.25878906 C59.08323087 71.63949973 57.52598303 71.51176221 53.28686523 71.51757812 C51.31483376 71.52703461 51.31483376 71.52703461 49.30296326 71.53668213 C47.86668768 71.53310272 46.43041333 71.52900086 44.99414062 71.52441406 C43.52348262 71.52576114 42.05282506 71.52770203 40.58216858 71.5302124 C37.50126909 71.53316075 34.42048561 71.52887477 31.33959961 71.51953125 C27.38601182 71.50812677 23.43269527 71.51470417 19.47911739 71.52667618 C16.44314012 71.53389409 13.40722744 71.53160736 10.37124825 71.52642059 C8.91316254 71.52508442 7.45507101 71.52673069 5.99699211 71.5313797 C3.96210717 71.53644462 1.92720172 71.52735938 -0.10766602 71.51757812 C-1.26665909 71.51598694 -2.42565216 71.51439575 -3.61976624 71.51275635 C-6.34570312 71.25878906 -6.34570312 71.25878906 -8.34570312 69.25878906 C-8.59967041 66.48815918 -8.59967041 66.48815918 -8.60449219 62.91308594 C-8.60799683 62.26251724 -8.61150146 61.61194855 -8.6151123 60.94166565 C-8.62392942 58.78684889 -8.61808075 56.63235928 -8.61132812 54.47753906 C-8.61267479 52.98303158 -8.61461533 51.48852453 -8.61712646 49.99401855 C-8.62007769 46.86006504 -8.6157802 43.72622544 -8.60644531 40.59228516 C-8.59505069 36.57028893 -8.60161018 32.54855961 -8.61359024 28.52657318 C-8.62080893 25.43998189 -8.61852089 22.35345414 -8.61333466 19.26686096 C-8.61199818 17.78365548 -8.61364582 16.30044428 -8.61829376 14.81724548 C-8.62335924 12.74617175 -8.61564897 10.6755334 -8.60449219 8.60449219 C-8.602901 7.42471802 -8.60130981 6.24494385 -8.59967041 5.02941895 C-8.08610314 -0.57329019 -4.79526587 0.00646748 0 0 Z " fill="#E16348" transform="translate(211.345703125,198.7412109375)"/>
<path d="M0 0 C1.00730415 -0.00262848 1.00730415 -0.00262848 2.03495789 -0.00531006 C4.26486765 -0.00972777 6.49469874 -0.00679089 8.72460938 -0.00341797 C10.26778173 -0.00409103 11.81095398 -0.00506108 13.35412598 -0.00631714 C16.59237678 -0.007794 19.83060005 -0.00563993 23.06884766 -0.00097656 C27.2287846 0.00472073 31.38865704 0.00144166 35.54859161 -0.00454903 C38.73635345 -0.00815496 41.92409989 -0.00701591 45.11186218 -0.00442123 C46.6461335 -0.00375205 48.1804062 -0.00458008 49.7146759 -0.00690079 C51.85539478 -0.00942784 53.9960078 -0.00558601 56.13671875 0 C57.96752991 0.00119339 57.96752991 0.00119339 59.83532715 0.00241089 C62.56835938 0.12939453 62.56835938 0.12939453 63.56835938 1.12939453 C63.67306018 3.20471192 63.70692191 5.28362625 63.71362305 7.36157227 C63.71698166 8.01199493 63.72034027 8.6624176 63.72380066 9.33255005 C63.73333606 11.4927153 63.73525507 13.65280326 63.73632812 15.81298828 C63.73953895 17.30892469 63.74290289 18.80486078 63.74641418 20.30079651 C63.75241197 23.44069141 63.75425343 26.58055876 63.75366211 29.72045898 C63.75356046 33.75031135 63.76721269 37.77998763 63.78443432 41.80979824 C63.79553541 44.9006685 63.7975819 47.99149595 63.79705238 51.08238411 C63.79823536 52.56838653 63.80267483 54.05438996 63.81038475 55.54037285 C63.82014664 57.61631588 63.81732195 59.69187346 63.8112793 61.76782227 C63.81270432 62.95061264 63.81412933 64.13340302 63.81559753 65.35203552 C63.56835938 68.12939453 63.56835938 68.12939453 61.56835938 70.12939453 C58.79772949 70.38336182 58.79772949 70.38336182 55.22265625 70.38818359 C54.24680321 70.39344055 54.24680321 70.39344055 53.25123596 70.39880371 C51.0964192 70.40762082 48.94192959 70.40177216 46.78710938 70.39501953 C45.2926019 70.39636619 43.79809484 70.39830673 42.30358887 70.40081787 C39.16963535 70.4037691 36.03579576 70.39947161 32.90185547 70.39013672 C28.87985924 70.3787421 24.85812992 70.38530159 20.83614349 70.39728165 C17.74955221 70.40450033 14.66302445 70.4022123 11.57643127 70.39702606 C10.0932258 70.39568958 8.61001459 70.39733722 7.1268158 70.40198517 C5.05574206 70.40705065 2.98510371 70.39934037 0.9140625 70.38818359 C-0.26571167 70.38659241 -1.44548584 70.38500122 -2.66101074 70.38336182 C-5.43164062 70.12939453 -5.43164062 70.12939453 -7.43164062 68.12939453 C-7.67887878 65.35203552 -7.67887878 65.35203552 -7.67456055 61.76782227 C-7.67645889 61.11564728 -7.67835724 60.46347229 -7.68031311 59.79153442 C-7.68402342 57.63189747 -7.67331434 55.47259543 -7.66210938 53.31298828 C-7.66091772 51.81608622 -7.66046438 50.3191834 -7.66072083 48.82228088 C-7.65915558 45.68412602 -7.65086213 42.54608517 -7.63745117 39.40795898 C-7.62044659 35.37695723 -7.61663722 31.34608069 -7.61739635 27.31504726 C-7.61712501 24.22421565 -7.61164977 21.13341164 -7.60439491 18.04258919 C-7.60120365 16.55576855 -7.59923978 15.06894477 -7.59850121 13.5821209 C-7.59634328 11.50854996 -7.58761152 9.43511434 -7.5769043 7.36157227 C-7.5730925 6.17957748 -7.5692807 4.9975827 -7.56535339 3.7797699 C-7.31108138 -1.26025942 -4.41881418 0.00288035 0 0 Z " fill="#E16247" transform="translate(110.431640625,-0.12939453125)"/>
<path d="M0 0 C1.00730415 -0.00262848 1.00730415 -0.00262848 2.03495789 -0.00531006 C4.26486765 -0.00972777 6.49469874 -0.00679089 8.72460938 -0.00341797 C10.26778173 -0.00409103 11.81095398 -0.00506108 13.35412598 -0.00631714 C16.59237678 -0.007794 19.83060005 -0.00563993 23.06884766 -0.00097656 C27.2287846 0.00472073 31.38865704 0.00144166 35.54859161 -0.00454903 C38.73635345 -0.00815496 41.92409989 -0.00701591 45.11186218 -0.00442123 C46.6461335 -0.00375205 48.1804062 -0.00458008 49.7146759 -0.00690079 C51.85539478 -0.00942784 53.9960078 -0.00558601 56.13671875 0 C57.96752991 0.00119339 57.96752991 0.00119339 59.83532715 0.00241089 C62.56835938 0.12939453 62.56835938 0.12939453 63.56835938 1.12939453 C63.67306018 3.20471192 63.70692191 5.28362625 63.71362305 7.36157227 C63.71698166 8.01199493 63.72034027 8.6624176 63.72380066 9.33255005 C63.73333606 11.4927153 63.73525507 13.65280326 63.73632812 15.81298828 C63.73953895 17.30892469 63.74290289 18.80486078 63.74641418 20.30079651 C63.75241197 23.44069141 63.75425343 26.58055876 63.75366211 29.72045898 C63.75356046 33.75031135 63.76721269 37.77998763 63.78443432 41.80979824 C63.79553541 44.9006685 63.7975819 47.99149595 63.79705238 51.08238411 C63.79823536 52.56838653 63.80267483 54.05438996 63.81038475 55.54037285 C63.82014664 57.61631588 63.81732195 59.69187346 63.8112793 61.76782227 C63.81270432 62.95061264 63.81412933 64.13340302 63.81559753 65.35203552 C63.56835938 68.12939453 63.56835938 68.12939453 61.56835938 70.12939453 C58.79772949 70.38336182 58.79772949 70.38336182 55.22265625 70.38818359 C54.24680321 70.39344055 54.24680321 70.39344055 53.25123596 70.39880371 C51.0964192 70.40762082 48.94192959 70.40177216 46.78710938 70.39501953 C45.2926019 70.39636619 43.79809484 70.39830673 42.30358887 70.40081787 C39.16963535 70.4037691 36.03579576 70.39947161 32.90185547 70.39013672 C28.87985924 70.3787421 24.85812992 70.38530159 20.83614349 70.39728165 C17.74955221 70.40450033 14.66302445 70.4022123 11.57643127 70.39702606 C10.0932258 70.39568958 8.61001459 70.39733722 7.1268158 70.40198517 C5.05574206 70.40705065 2.98510371 70.39934037 0.9140625 70.38818359 C-0.26571167 70.38659241 -1.44548584 70.38500122 -2.66101074 70.38336182 C-5.43164062 70.12939453 -5.43164062 70.12939453 -7.43164062 68.12939453 C-7.67887878 65.35203552 -7.67887878 65.35203552 -7.67456055 61.76782227 C-7.67645889 61.11564728 -7.67835724 60.46347229 -7.68031311 59.79153442 C-7.68402342 57.63189747 -7.67331434 55.47259543 -7.66210938 53.31298828 C-7.66091772 51.81608622 -7.66046438 50.3191834 -7.66072083 48.82228088 C-7.65915558 45.68412602 -7.65086213 42.54608517 -7.63745117 39.40795898 C-7.62044659 35.37695723 -7.61663722 31.34608069 -7.61739635 27.31504726 C-7.61712501 24.22421565 -7.61164977 21.13341164 -7.60439491 18.04258919 C-7.60120365 16.55576855 -7.59923978 15.06894477 -7.59850121 13.5821209 C-7.59634328 11.50854996 -7.58761152 9.43511434 -7.5769043 7.36157227 C-7.5730925 6.17957748 -7.5692807 4.9975827 -7.56535339 3.7797699 C-7.31108138 -1.26025942 -4.41881418 0.00288035 0 0 Z " fill="#E16247" transform="translate(10.431640625,-0.12939453125)"/>
<path d="M0 0 C1.18279037 0.00142502 2.36558075 0.00285004 3.58421326 0.00431824 C4.23638824 0.00241989 4.88856323 0.00052155 5.5605011 -0.00143433 C7.72013805 -0.00514463 9.87944009 0.00556444 12.03904724 0.01676941 C13.5359493 0.01796106 15.03285212 0.0184144 16.52975464 0.01815796 C19.6679095 0.0197232 22.80595035 0.02801665 25.94407654 0.04142761 C29.9750783 0.05843219 34.00595483 0.06224157 38.03698826 0.06148243 C41.12781987 0.06175378 44.21862388 0.06722901 47.30944633 0.07448387 C48.79626697 0.07767513 50.28309075 0.07963901 51.76991463 0.08037758 C53.84348556 0.08253551 55.91692118 0.09126726 57.99046326 0.10197449 C59.17245804 0.10578629 60.35445282 0.10959808 61.57226562 0.11352539 C64.22264099 0.24723816 64.22264099 0.24723816 65.22264099 1.24723816 C65.31689694 3.39467365 65.34006747 5.54524842 65.33616638 7.69474792 C65.33631241 8.36789032 65.33645844 9.04103271 65.33660889 9.73457336 C65.33590978 11.969296 65.32811751 14.20393625 65.32029724 16.43864441 C65.31843305 17.98421178 65.31700915 19.52977973 65.31600952 21.0753479 C65.31218439 25.15080893 65.30235416 29.22623453 65.29130554 33.30168152 C65.28109131 37.45735698 65.27651188 41.61303815 65.27146912 45.76872253 C65.26073188 53.92824403 65.24365553 62.08773669 65.22264099 70.24723816 C62.42196062 71.64757834 60.10169521 71.38222462 56.96873474 71.39250183 C55.65397156 71.39888168 54.33920837 71.40526154 52.98460388 71.41183472 C51.54311662 71.41336316 50.10162888 71.41447724 48.66014099 71.41520691 C47.18805407 71.41841871 45.71596747 71.42178272 44.24388123 71.42529297 C41.15704101 71.43128499 38.0702288 71.43313275 34.98338318 71.43254089 C31.02193961 71.43243916 27.06067482 71.44610284 23.09927368 71.4633131 C20.05901764 71.47441303 17.01880512 71.47646074 13.97853088 71.47593117 C12.51764814 71.47711388 11.05676436 71.48155189 9.59590149 71.48926353 C7.55614007 71.49902439 5.51632643 71.49493129 3.47654724 71.49015808 C2.31453796 71.4915831 1.15252869 71.49300812 -0.04469299 71.49447632 C-2.77735901 71.24723816 -2.77735901 71.24723816 -4.77735901 69.24723816 C-5.03132629 66.47660828 -5.03132629 66.47660828 -5.03614807 62.90153503 C-5.03965271 62.25096634 -5.04315735 61.60039764 -5.04676819 60.93011475 C-5.0555853 58.77529798 -5.04973664 56.62080838 -5.04298401 54.46598816 C-5.04433067 52.97148068 -5.04627121 51.47697363 -5.04878235 49.98246765 C-5.05173358 46.84851414 -5.04743608 43.71467454 -5.0381012 40.58073425 C-5.02670657 36.55873803 -5.03326607 32.53700871 -5.04524612 28.51502228 C-5.05246481 25.42843099 -5.05017678 22.34190323 -5.04499054 19.25531006 C-5.04365406 17.77210458 -5.0453017 16.28889338 -5.04994965 14.80569458 C-5.05501512 12.73462085 -5.04730485 10.6639825 -5.03614807 8.59294128 C-5.03455688 7.41316711 -5.0329657 6.23339294 -5.03132629 5.01786804 C-4.6792849 1.17730883 -3.84146103 0.34196362 0 0 Z " fill="#E16246" transform="translate(307.77735900878906,298.7527618408203)"/>
<path d="M0 0 C1.18279037 0.00142502 2.36558075 0.00285004 3.58421326 0.00431824 C4.23638824 0.00241989 4.88856323 0.00052155 5.5605011 -0.00143433 C7.72013805 -0.00514463 9.87944009 0.00556444 12.03904724 0.01676941 C13.5359493 0.01796106 15.03285212 0.0184144 16.52975464 0.01815796 C19.6679095 0.0197232 22.80595035 0.02801665 25.94407654 0.04142761 C29.9750783 0.05843219 34.00595483 0.06224157 38.03698826 0.06148243 C41.12781987 0.06175378 44.21862388 0.06722901 47.30944633 0.07448387 C48.79626697 0.07767513 50.28309075 0.07963901 51.76991463 0.08037758 C53.84348556 0.08253551 55.91692118 0.09126726 57.99046326 0.10197449 C59.17245804 0.10578629 60.35445282 0.10959808 61.57226562 0.11352539 C64.22264099 0.24723816 64.22264099 0.24723816 65.22264099 1.24723816 C65.31689694 3.39467365 65.34006747 5.54524842 65.33616638 7.69474792 C65.33631241 8.36789032 65.33645844 9.04103271 65.33660889 9.73457336 C65.33590978 11.969296 65.32811751 14.20393625 65.32029724 16.43864441 C65.31843305 17.98421178 65.31700915 19.52977973 65.31600952 21.0753479 C65.31218439 25.15080893 65.30235416 29.22623453 65.29130554 33.30168152 C65.28109131 37.45735698 65.27651188 41.61303815 65.27146912 45.76872253 C65.26073188 53.92824403 65.24365553 62.08773669 65.22264099 70.24723816 C62.42196062 71.64757834 60.10169521 71.38222462 56.96873474 71.39250183 C55.65397156 71.39888168 54.33920837 71.40526154 52.98460388 71.41183472 C51.54311662 71.41336316 50.10162888 71.41447724 48.66014099 71.41520691 C47.18805407 71.41841871 45.71596747 71.42178272 44.24388123 71.42529297 C41.15704101 71.43128499 38.0702288 71.43313275 34.98338318 71.43254089 C31.02193961 71.43243916 27.06067482 71.44610284 23.09927368 71.4633131 C20.05901764 71.47441303 17.01880512 71.47646074 13.97853088 71.47593117 C12.51764814 71.47711388 11.05676436 71.48155189 9.59590149 71.48926353 C7.55614007 71.49902439 5.51632643 71.49493129 3.47654724 71.49015808 C2.31453796 71.4915831 1.15252869 71.49300812 -0.04469299 71.49447632 C-2.77735901 71.24723816 -2.77735901 71.24723816 -4.77735901 69.24723816 C-5.03132629 66.47660828 -5.03132629 66.47660828 -5.03614807 62.90153503 C-5.03965271 62.25096634 -5.04315735 61.60039764 -5.04676819 60.93011475 C-5.0555853 58.77529798 -5.04973664 56.62080838 -5.04298401 54.46598816 C-5.04433067 52.97148068 -5.04627121 51.47697363 -5.04878235 49.98246765 C-5.05173358 46.84851414 -5.04743608 43.71467454 -5.0381012 40.58073425 C-5.02670657 36.55873803 -5.03326607 32.53700871 -5.04524612 28.51502228 C-5.05246481 25.42843099 -5.05017678 22.34190323 -5.04499054 19.25531006 C-5.04365406 17.77210458 -5.0453017 16.28889338 -5.04994965 14.80569458 C-5.05501512 12.73462085 -5.04730485 10.6639825 -5.03614807 8.59294128 C-5.03455688 7.41316711 -5.0329657 6.23339294 -5.03132629 5.01786804 C-4.6792849 1.17730883 -3.84146103 0.34196362 0 0 Z " fill="#E16246" transform="translate(307.77735900878906,198.7527618408203)"/>
<path d="M0 0 C1.16200928 0.00142502 2.32401855 0.00285004 3.52124023 0.00431824 C5.49338501 -0.00029671 5.49338501 -0.00029671 7.50537109 -0.00500488 C8.94686049 0.00189306 10.38834817 0.00916005 11.82983398 0.01676941 C13.30192016 0.01796119 14.77400711 0.01841438 16.24609375 0.01815796 C19.33297478 0.01972332 22.41973992 0.02801682 25.5065918 0.04142761 C29.46799339 0.05841755 33.42926754 0.06224197 37.39070129 0.06148243 C40.43096132 0.06175407 43.47119336 0.06723427 46.51144409 0.07448387 C47.9723184 0.07767121 49.43319589 0.0796381 50.89407349 0.08037758 C52.93386979 0.08254042 54.9736543 0.09207654 57.01342773 0.10197449 C58.75644165 0.10769218 58.75644165 0.10769218 60.53466797 0.11352539 C63.26733398 0.24723816 63.26733398 0.24723816 65.26733398 1.24723816 C65.26733398 24.01723816 65.26733398 46.78723816 65.26733398 70.24723816 C62.46665362 71.64757834 60.1463882 71.38222462 57.01342773 71.39250183 C55.69866455 71.39888168 54.38390137 71.40526154 53.02929688 71.41183472 C51.58780962 71.41336316 50.14632187 71.41447724 48.70483398 71.41520691 C47.23274706 71.41841871 45.76066046 71.42178272 44.28857422 71.42529297 C41.201734 71.43128499 38.11492179 71.43313275 35.02807617 71.43254089 C31.06663261 71.43243916 27.10536782 71.44610284 23.14396667 71.4633131 C20.10371063 71.47441303 17.06349812 71.47646074 14.02322388 71.47593117 C12.56234113 71.47711388 11.10145735 71.48155189 9.64059448 71.48926353 C7.60083307 71.49902439 5.56101942 71.49493129 3.52124023 71.49015808 C2.35923096 71.4915831 1.19722168 71.49300812 0 71.49447632 C-2.73266602 71.24723816 -2.73266602 71.24723816 -4.73266602 69.24723816 C-4.9866333 66.47660828 -4.9866333 66.47660828 -4.99145508 62.90153503 C-4.99495972 62.25096634 -4.99846436 61.60039764 -5.0020752 60.93011475 C-5.01089231 58.77529798 -5.00504364 56.62080838 -4.99829102 54.46598816 C-4.99963768 52.97148068 -5.00157822 51.47697363 -5.00408936 49.98246765 C-5.00704058 46.84851414 -5.00274309 43.71467454 -4.9934082 40.58073425 C-4.98201358 36.55873803 -4.98857307 32.53700871 -5.00055313 28.51502228 C-5.00777182 25.42843099 -5.00548378 22.34190323 -5.00029755 19.25531006 C-4.99896107 17.77210458 -5.00060871 16.28889338 -5.00525665 14.80569458 C-5.01032213 12.73462085 -5.00261186 10.6639825 -4.99145508 8.59294128 C-4.98986389 7.41316711 -4.98827271 6.23339294 -4.9866333 5.01786804 C-4.63748936 1.20891828 -3.816056 0.34525795 0 0 Z " fill="#E16246" transform="translate(307.732666015625,98.75276184082031)"/>
<path d="M0 0 C1.16200928 0.00142502 2.32401855 0.00285004 3.52124023 0.00431824 C5.49338501 -0.00029671 5.49338501 -0.00029671 7.50537109 -0.00500488 C8.94686049 0.00189306 10.38834817 0.00916005 11.82983398 0.01676941 C13.30192016 0.01796119 14.77400711 0.01841438 16.24609375 0.01815796 C19.33297478 0.01972332 22.41973992 0.02801682 25.5065918 0.04142761 C29.46799339 0.05841755 33.42926754 0.06224197 37.39070129 0.06148243 C40.43096132 0.06175407 43.47119336 0.06723427 46.51144409 0.07448387 C47.9723184 0.07767121 49.43319589 0.0796381 50.89407349 0.08037758 C52.93386979 0.08254042 54.9736543 0.09207654 57.01342773 0.10197449 C58.75644165 0.10769218 58.75644165 0.10769218 60.53466797 0.11352539 C63.26733398 0.24723816 63.26733398 0.24723816 65.26733398 1.24723816 C65.26733398 24.01723816 65.26733398 46.78723816 65.26733398 70.24723816 C62.46665362 71.64757834 60.1463882 71.38222462 57.01342773 71.39250183 C55.69866455 71.39888168 54.38390137 71.40526154 53.02929688 71.41183472 C51.58780962 71.41336316 50.14632187 71.41447724 48.70483398 71.41520691 C47.23274706 71.41841871 45.76066046 71.42178272 44.28857422 71.42529297 C41.201734 71.43128499 38.11492179 71.43313275 35.02807617 71.43254089 C31.06663261 71.43243916 27.10536782 71.44610284 23.14396667 71.4633131 C20.10371063 71.47441303 17.06349812 71.47646074 14.02322388 71.47593117 C12.56234113 71.47711388 11.10145735 71.48155189 9.64059448 71.48926353 C7.60083307 71.49902439 5.56101942 71.49493129 3.52124023 71.49015808 C2.35923096 71.4915831 1.19722168 71.49300812 0 71.49447632 C-2.73266602 71.24723816 -2.73266602 71.24723816 -4.73266602 69.24723816 C-4.9866333 66.47660828 -4.9866333 66.47660828 -4.99145508 62.90153503 C-4.99495972 62.25096634 -4.99846436 61.60039764 -5.0020752 60.93011475 C-5.01089231 58.77529798 -5.00504364 56.62080838 -4.99829102 54.46598816 C-4.99963768 52.97148068 -5.00157822 51.47697363 -5.00408936 49.98246765 C-5.00704058 46.84851414 -5.00274309 43.71467454 -4.9934082 40.58073425 C-4.98201358 36.55873803 -4.98857307 32.53700871 -5.00055313 28.51502228 C-5.00777182 25.42843099 -5.00548378 22.34190323 -5.00029755 19.25531006 C-4.99896107 17.77210458 -5.00060871 16.28889338 -5.00525665 14.80569458 C-5.01032213 12.73462085 -5.00261186 10.6639825 -4.99145508 8.59294128 C-4.98986389 7.41316711 -4.98827271 6.23339294 -4.9866333 5.01786804 C-4.63748936 1.20891828 -3.816056 0.34525795 0 0 Z " fill="#E16246" transform="translate(207.732666015625,98.75276184082031)"/>
<path d="M0 0 C1.22355698 0.00222061 2.44711395 0.00444122 3.70774841 0.00672913 C4.71746201 0.00651009 4.71746201 0.00651009 5.74757385 0.00628662 C7.98229649 0.00698573 10.21693674 0.01477799 12.4516449 0.02259827 C13.99721226 0.02446245 15.54278022 0.02588635 17.08834839 0.02688599 C21.16380941 0.03071112 25.23923502 0.04054135 29.31468201 0.05158997 C33.47035747 0.0618042 37.62603864 0.06638363 41.78172302 0.07142639 C49.94124452 0.08216363 58.10073718 0.09923998 66.26023865 0.12025452 C66.28336431 9.09946229 66.30115487 18.07865988 66.31205082 27.05789089 C66.31727916 31.22688279 66.32437591 35.39585438 66.3356781 39.56483459 C66.34650873 43.58483137 66.35251585 47.60480856 66.35511589 51.6248188 C66.35696982 53.16188427 66.36058983 54.69894861 66.3659687 56.23600578 C66.37318149 58.38160938 66.37422949 60.52713107 66.37376404 62.67274475 C66.37598465 63.89630173 66.37820526 65.1198587 66.38049316 66.38049316 C66.26023865 69.12025452 66.26023865 69.12025452 65.26023865 70.12025452 C63.18492125 70.22495532 61.10600693 70.25881705 59.02806091 70.26551819 C58.37763824 70.2688768 57.72721558 70.27223541 57.05708313 70.2756958 C54.89691787 70.2852312 52.73682992 70.28715021 50.5766449 70.28822327 C49.08070849 70.29143409 47.5847724 70.29479803 46.08883667 70.29830933 C42.94894177 70.30430711 39.80907442 70.30614857 36.66917419 70.30555725 C32.63932183 70.3054556 28.60964555 70.31910784 24.57983494 70.33632946 C21.48896468 70.34743055 18.39813723 70.34947704 15.30724907 70.34894753 C13.82124665 70.3501305 12.33524322 70.35456998 10.84926033 70.36227989 C8.7733173 70.37204178 6.69775972 70.36921709 4.62181091 70.36317444 C3.43902054 70.36459946 2.25623016 70.36602448 1.03759766 70.36749268 C-1.73976135 70.12025452 -1.73976135 70.12025452 -3.73976135 68.12025452 C-3.98699951 65.34289551 -3.98699951 65.34289551 -3.98268127 61.75868225 C-3.98457962 61.10650726 -3.98647797 60.45433228 -3.98843384 59.78239441 C-3.99214415 57.62275746 -3.98143507 55.46345542 -3.9702301 53.30384827 C-3.96903845 51.8069462 -3.96858511 50.31004338 -3.96884155 48.81314087 C-3.96727631 45.674986 -3.95898286 42.53694516 -3.9455719 39.39881897 C-3.92856732 35.36781721 -3.92475794 31.33694067 -3.92551708 27.30590725 C-3.92524574 24.21507564 -3.9197705 21.12427163 -3.91251564 18.03344917 C-3.90932438 16.54662854 -3.9073605 15.05980476 -3.90662193 13.57298088 C-3.90446401 11.49940994 -3.89573225 9.42597432 -3.88502502 7.35243225 C-3.88121323 6.17043747 -3.87740143 4.98844269 -3.87347412 3.77062988 C-3.69093861 0.15251908 -3.63017311 0.15933677 0 0 Z " fill="#E16146" transform="translate(206.73976135253906,-0.1202545166015625)"/>
<path d="M0 0 C1.22355698 0.00222061 2.44711395 0.00444122 3.70774841 0.00672913 C4.39180976 0.00660859 5.07587111 0.00648806 5.78066158 0.00636387 C8.00435528 0.0071128 10.22796611 0.0147401 12.4516449 0.02259827 C13.82074442 0.02406775 15.1898445 0.02508842 16.5589447 0.02565002 C21.64688456 0.0309022 26.73481241 0.04486329 31.82273865 0.05775452 C48.86930115 0.08869202 48.86930115 0.08869202 66.26023865 0.12025452 C66.26023865 22.89025452 66.26023865 45.66025452 66.26023865 69.12025452 C63.45955828 70.5205947 61.13929286 70.25524098 58.0063324 70.26551819 C56.69156921 70.27189804 55.37680603 70.27827789 54.02220154 70.28485107 C52.58071428 70.28637951 51.13922653 70.2874936 49.69773865 70.28822327 C48.22565172 70.29143507 46.75356512 70.29479908 45.28147888 70.29830933 C42.19463867 70.30430135 39.10782646 70.3061491 36.02098083 70.30555725 C32.05953727 70.30545551 28.09827248 70.3191192 24.13687134 70.33632946 C21.09661529 70.34742939 18.05640278 70.3494771 15.01612854 70.34894753 C13.55524579 70.35013024 12.09436202 70.35456824 10.63349915 70.36227989 C8.59373773 70.37204075 6.55392408 70.36794765 4.5141449 70.36317444 C3.35213562 70.36459946 2.19012634 70.36602448 0.99290466 70.36749268 C-1.73976135 70.12025452 -1.73976135 70.12025452 -3.73976135 68.12025452 C-3.98699951 65.34289551 -3.98699951 65.34289551 -3.98268127 61.75868225 C-3.98457962 61.10650726 -3.98647797 60.45433228 -3.98843384 59.78239441 C-3.99214415 57.62275746 -3.98143507 55.46345542 -3.9702301 53.30384827 C-3.96903845 51.8069462 -3.96858511 50.31004338 -3.96884155 48.81314087 C-3.96727631 45.674986 -3.95898286 42.53694516 -3.9455719 39.39881897 C-3.92856732 35.36781721 -3.92475794 31.33694067 -3.92551708 27.30590725 C-3.92524574 24.21507564 -3.9197705 21.12427163 -3.91251564 18.03344917 C-3.90932438 16.54662854 -3.9073605 15.05980476 -3.90662193 13.57298088 C-3.90446401 11.49940994 -3.89573225 9.42597432 -3.88502502 7.35243225 C-3.88121323 6.17043747 -3.87740143 4.98844269 -3.87347412 3.77062988 C-3.69093861 0.15251908 -3.63017311 0.15933677 0 0 Z " fill="#E16146" transform="translate(306.73976135253906,-0.1202545166015625)"/>
</svg>
